<svg width="672" height="662" viewBox="0 0 672 662" fill="none" xmlns="http://www.w3.org/2000/svg">
<g clip-path="url(#clip0_72_27389)">
<path d="M728.513 506.497H-45V506.883H728.513V506.497Z" fill="#E6E6E6"/>
<path d="M148.1 529.903H96.8623V530.29H148.1V529.903Z" fill="#E6E6E6"/>
<path d="M80.6499 529.903H50.9624V530.29H80.6499V529.903Z" fill="#E6E6E6"/>
<path d="M280.727 535.596H251.039V535.983H280.727V535.596Z" fill="#E6E6E6"/>
<path d="M435.522 544.229H368.706V544.615H435.522V544.229Z" fill="#E6E6E6"/>
<path d="M354.937 544.229H345.145V544.615H354.937V544.229Z" fill="#E6E6E6"/>
<path d="M656.345 535.596H511.419V535.983H656.345V535.596Z" fill="#E6E6E6"/>
<path d="M321.645 437.499H22.9299C20.5898 437.495 18.3469 436.563 16.6936 434.906C15.0404 433.25 14.1118 431.006 14.1118 428.666V8.75617C14.1322 6.42948 15.0697 4.20479 16.7208 2.56531C18.3719 0.925831 20.6031 0.00398574 22.9299 0H321.645C323.988 0 326.235 0.930673 327.892 2.58728C329.548 4.24389 330.479 6.49073 330.479 8.83352V428.666C330.479 431.009 329.548 433.255 327.892 434.912C326.235 436.569 323.988 437.499 321.645 437.499ZM22.9299 0.309407C20.6923 0.313505 18.5478 1.20523 16.9671 2.78887C15.3864 4.3725 14.4986 6.51863 14.4986 8.75617V428.666C14.4986 430.903 15.3864 433.049 16.9671 434.633C18.5478 436.217 20.6923 437.108 22.9299 437.112H321.645C323.884 437.108 326.03 436.217 327.614 434.634C329.197 433.051 330.088 430.905 330.092 428.666V8.75617C330.088 6.51721 329.197 4.37111 327.614 2.78792C326.03 1.20473 323.884 0.313496 321.645 0.309407H22.9299Z" fill="#E6E6E6"/>
<path d="M656.283 437.499H357.552C355.211 437.495 352.966 436.563 351.311 434.907C349.655 433.252 348.723 431.007 348.719 428.666V8.75617C348.743 6.42807 349.684 4.20339 351.338 2.56434C352.991 0.92529 355.224 0.00394227 357.552 0H656.283C658.607 0.0080515 660.835 0.931696 662.482 2.57074C664.13 4.20978 665.065 6.43215 665.086 8.75617V428.666C665.086 431.003 664.159 433.245 662.509 434.901C660.859 436.557 658.621 437.491 656.283 437.499ZM357.552 0.309407C355.313 0.313496 353.167 1.20473 351.584 2.78792C350.001 4.37111 349.11 6.51721 349.106 8.75617V428.666C349.11 430.905 350.001 433.051 351.584 434.634C353.167 436.217 355.313 437.108 357.552 437.112H656.283C658.522 437.108 660.668 436.217 662.251 434.634C663.835 433.051 664.726 430.905 664.73 428.666V8.75617C664.726 6.51721 663.835 4.37111 662.251 2.78792C660.668 1.20473 658.522 0.313496 656.283 0.309407H357.552Z" fill="#E6E6E6"/>
<path d="M368.675 374.35H334.656V509.297H368.675V374.35Z" fill="#BEBEBE"/>
<path d="M362.209 509.297H368.675V490.918H355.433L362.209 509.297Z" fill="#FAFAFA"/>
<path d="M219.604 374.35H185.584V509.297H219.604V374.35Z" fill="#E0E0E0"/>
<path d="M368.675 374.35H213.972V498.019H368.675V374.35Z" fill="#FAFAFA"/>
<path d="M363.059 380.429V413.149H219.542V380.429H363.013M363.616 379.826H218.985V413.737H363.663V379.826H363.616Z" fill="#E0E0E0"/>
<path d="M220.423 509.297H213.972V490.918H227.199L220.423 509.297Z" fill="#FAFAFA"/>
<path d="M287.905 396.781C287.905 397.458 288.105 398.119 288.481 398.681C288.857 399.243 289.391 399.681 290.015 399.94C290.64 400.199 291.327 400.267 291.991 400.135C292.654 400.003 293.263 399.677 293.741 399.199C294.219 398.721 294.545 398.112 294.677 397.448C294.809 396.785 294.741 396.098 294.482 395.473C294.224 394.848 293.785 394.314 293.223 393.939C292.661 393.563 292 393.363 291.324 393.363C290.417 393.363 289.547 393.723 288.906 394.364C288.265 395.005 287.905 395.875 287.905 396.781Z" fill="#E6E6E6"/>
<path d="M363.059 419.817V452.536H219.542V419.817H363.013M363.616 419.229H218.985V453.14H363.663V419.244L363.616 419.229Z" fill="#E0E0E0"/>
<path d="M287.905 436.262C287.905 436.938 288.105 437.599 288.481 438.161C288.857 438.723 289.391 439.162 290.015 439.42C290.64 439.679 291.327 439.747 291.991 439.615C292.654 439.483 293.263 439.157 293.741 438.679C294.219 438.201 294.545 437.592 294.677 436.929C294.809 436.265 294.741 435.578 294.482 434.953C294.224 434.328 293.785 433.795 293.223 433.419C292.661 433.043 292 432.843 291.324 432.843C290.417 432.843 289.547 433.203 288.906 433.844C288.265 434.485 287.905 435.355 287.905 436.262Z" fill="#E6E6E6"/>
<path d="M363.059 459.22V491.955H219.542V459.22H363.013M363.616 458.616H218.985V492.542H363.663V458.616H363.616Z" fill="#E0E0E0"/>
<path d="M287.905 475.587C287.908 476.263 288.111 476.922 288.489 477.482C288.866 478.042 289.401 478.478 290.026 478.735C290.651 478.991 291.338 479.057 292 478.923C292.662 478.789 293.27 478.462 293.747 477.984C294.223 477.505 294.547 476.896 294.678 476.233C294.809 475.57 294.74 474.884 294.481 474.26C294.222 473.636 293.783 473.103 293.222 472.728C292.66 472.353 291.999 472.153 291.324 472.153C290.873 472.153 290.428 472.242 290.012 472.414C289.596 472.587 289.218 472.84 288.901 473.16C288.583 473.479 288.332 473.857 288.161 474.274C287.99 474.691 287.903 475.137 287.905 475.587Z" fill="#E6E6E6"/>
<path d="M198.827 295.977H164.808V509.312H198.827V295.977Z" fill="#E0E0E0"/>
<path d="M192.36 509.297H198.827V490.918H185.6L192.36 509.297Z" fill="#FAFAFA"/>
<path d="M71.692 295.977H37.6729V509.312H71.692V295.977Z" fill="#BEBEBE"/>
<path d="M198.827 295.977H66.0459V498.034H198.827V295.977Z" fill="#FAFAFA"/>
<path d="M193.103 301.67V347.416H71.7694V301.67H193.103ZM193.814 300.974H71.0269V348.081H193.783V300.99L193.814 300.974Z" fill="#E0E0E0"/>
<path d="M193.103 353.001V474.334H135.306V353.001H193.103ZM193.815 352.289H134.61V475.046H193.815V352.289Z" fill="#E0E0E0"/>
<path d="M129.566 353.001V474.334H71.7694V353.001H129.566ZM130.263 352.289H71.0269V475.046H130.232V352.289H130.263Z" fill="#E0E0E0"/>
<path d="M72.5125 509.297H66.0459V490.918H79.2884L72.5125 509.297Z" fill="#FAFAFA"/>
<path d="M129.01 324.566C129.007 325.246 129.206 325.912 129.581 326.479C129.957 327.045 130.492 327.488 131.119 327.75C131.746 328.013 132.437 328.083 133.105 327.952C133.772 327.821 134.385 327.495 134.867 327.016C135.349 326.536 135.678 325.924 135.811 325.257C135.945 324.591 135.878 323.9 135.619 323.271C135.359 322.643 134.919 322.105 134.354 321.727C133.789 321.349 133.124 321.147 132.444 321.147C131.536 321.147 130.665 321.507 130.021 322.148C129.378 322.789 129.014 323.658 129.01 324.566Z" fill="#E6E6E6"/>
<path d="M141.262 410.782C141.262 411.462 141.464 412.127 141.842 412.692C142.22 413.257 142.757 413.697 143.386 413.956C144.014 414.216 144.706 414.283 145.372 414.149C146.039 414.015 146.651 413.687 147.131 413.205C147.61 412.723 147.936 412.11 148.067 411.442C148.198 410.775 148.127 410.084 147.865 409.457C147.603 408.83 147.16 408.294 146.593 407.919C146.027 407.543 145.361 407.345 144.681 407.348C144.231 407.348 143.785 407.437 143.369 407.609C142.953 407.782 142.576 408.035 142.258 408.354C141.94 408.674 141.689 409.052 141.518 409.469C141.347 409.885 141.26 410.332 141.262 410.782Z" fill="#E6E6E6"/>
<path d="M116.772 410.782C116.776 411.458 116.979 412.117 117.356 412.677C117.734 413.238 118.269 413.673 118.894 413.93C119.519 414.186 120.206 414.252 120.868 414.118C121.53 413.984 122.138 413.657 122.614 413.179C123.091 412.7 123.415 412.091 123.546 411.428C123.676 410.765 123.608 410.079 123.349 409.455C123.089 408.831 122.651 408.298 122.089 407.923C121.527 407.548 120.867 407.348 120.191 407.348C119.741 407.348 119.295 407.437 118.879 407.609C118.464 407.782 118.086 408.035 117.768 408.355C117.451 408.674 117.199 409.052 117.028 409.469C116.857 409.886 116.77 410.332 116.772 410.782Z" fill="#E6E6E6"/>
<path d="M112.905 236.494H98.5643C99.8859 243.451 100.718 250.491 101.055 257.565C101.055 265.3 90.133 295.977 105.696 295.977C121.259 295.977 110.337 265.377 110.337 257.565C110.7 250.49 111.558 243.449 112.905 236.494Z" fill="#BEBEBE"/>
<path d="M58.3413 267.868V277.15C58.3576 282.126 60.3415 286.893 63.8601 290.412C67.3787 293.931 72.1462 295.914 77.1222 295.931H86.4044C91.3804 295.914 96.1479 293.931 99.6665 290.412C103.185 286.893 105.169 282.126 105.185 277.15V267.868H58.3413Z" fill="#F5F5F5"/>
<path d="M257.707 354.671C257.707 365.501 269.82 374.35 284.625 374.35H297.992C312.797 374.35 324.91 365.501 324.91 354.671H257.707Z" fill="#E0E0E0"/>
<path d="M611.883 338.799C603.776 345.42 592.576 357.533 582.335 374.582C575.497 385.937 571.382 397.787 569.572 413.536C569.572 395.745 569.68 376.639 569.742 358.601C571.799 353.96 576.502 343.254 579.875 334.807C591.122 306.605 595.345 299.659 605.447 275.34C618.953 242.852 632.783 204.393 628.823 207.472C620.747 213.737 589.807 271.673 586.465 279.965C577.357 302.094 571.726 325.499 569.773 349.35C569.773 332.332 569.897 316.862 569.958 304.857C570.175 265.702 570.84 253.063 571.165 249.164C572.418 247.184 573.888 244.879 574.754 243.641C582.025 233.121 584.825 224.18 591.663 208.493C601.379 186.293 609.733 146.859 607.288 148.839C597.109 157.131 589.095 174.922 578.544 197.617C567.994 220.312 571.01 233.353 568.922 252.722C568.489 256.528 568.148 270.884 567.901 290.764C565.178 269.569 560.042 255.615 550.682 242.93C539.173 227.32 528.034 216.785 519.866 211.277C511.697 205.77 533.975 244.105 544.618 260.782C554.101 275.696 562.842 288.83 567.824 301.778C567.561 328.743 567.437 362.871 567.437 394.6C564.992 380.151 561.001 364.572 555.679 352.521C549.275 338.041 539.436 315.825 531.592 308.291C529.72 306.481 539.791 349.69 546.258 361.169C552.725 372.648 557.474 383.492 561.543 390.005C562.486 391.552 565.642 397.385 567.437 400.757C567.437 439.541 567.653 473.761 567.994 485.411H569.665C569.556 482.409 569.525 462.669 569.572 436.555C573.609 422.385 582.83 406.203 590.441 391.444C598.733 375.463 619.989 332.224 611.883 338.799Z" fill="#BEBEBE"/>
<path d="M593.056 509.297H544.572L540.906 461.772H596.722L593.056 509.297Z" fill="#E0E0E0"/>
<path d="M600.327 467.31H537.286L535.491 451.268H602.137L600.327 467.31Z" fill="#F5F5F5"/>
<path d="M147.234 31.714H60.5229V126.934H147.234V31.714Z" fill="#BEBEBE"/>
<path d="M156.624 31.714H67.0513V126.934H156.624V31.714Z" fill="#E0E0E0"/>
<path d="M149.121 119.431V39.2172L74.5544 39.2172V119.431H149.121Z" fill="white"/>
<path d="M131.037 99.9689V58.6478H92.6239V99.9689H131.037Z" fill="#F5F5F5"/>
<path d="M589.358 42.8063H508.805V131.265H589.358V42.8063Z" fill="#E0E0E0"/>
<path d="M598.084 42.8063H514.885V131.265H598.084V42.8063Z" fill="#E0E0E0"/>
<path d="M591.122 124.288V49.7833L521.862 49.7833V124.288H591.122Z" fill="white"/>
<path d="M556.484 108.648C568.42 108.648 578.096 98.9718 578.096 87.0358C578.096 75.0998 568.42 65.4238 556.484 65.4238C544.548 65.4238 534.872 75.0998 534.872 87.0358C534.872 98.9718 544.548 108.648 556.484 108.648Z" fill="#F5F5F5"/>
<path d="M237.317 88.4899H172.992V159.127H237.317V88.4899Z" fill="#BEBEBE"/>
<path d="M244.279 88.4899H177.834V159.127H244.279V88.4899Z" fill="#E0E0E0"/>
<path d="M238.709 153.558V94.0593H183.403V153.558H238.709Z" fill="white"/>
<path d="M211.064 108.756L195.934 134.963H226.194L211.064 108.756Z" fill="#F5F5F5"/>
<path d="M336 574.641C479.919 574.641 596.588 567.829 596.588 559.427C596.588 551.024 479.919 544.213 336 544.213C192.081 544.213 75.4116 551.024 75.4116 559.427C75.4116 567.829 192.081 574.641 336 574.641Z" fill="#E0E0E0"/>
<path d="M495.299 167.744L479.953 161.556C479.953 161.556 459.702 198.484 453.901 200.355C446.011 202.893 429.674 209.947 419.99 211.185C418.675 212.732 416.525 217.543 416.726 219.291C429.736 223.638 458.325 217.868 464.452 213.319C478.39 203.001 495.299 167.744 495.299 167.744Z" fill="#E58A7B"/>
<path d="M500.017 159.344C502.879 169.91 487.378 191.166 487.378 191.166L467.066 179.78C467.066 179.78 470.871 171.039 475.512 162.144C482.954 147.772 496.753 147.292 500.017 159.344Z" fill="#407BFF"/>
<path opacity="0.2" d="M500.017 159.344C502.879 169.91 487.378 191.166 487.378 191.166L467.066 179.78C467.066 179.78 470.871 171.039 475.512 162.144C482.954 147.772 496.753 147.292 500.017 159.344Z" fill="black"/>
<path opacity="0.2" d="M475.126 184.328L483.124 188.815L484.532 164.263C479.875 167.837 476.595 178.604 475.126 184.328Z" fill="black"/>
<path d="M486.651 151.392C486.651 151.392 470.841 186.571 480.061 252.072H542.36C543.35 242.512 540.07 195.853 551.936 150.804C545.102 149.468 538.187 148.585 531.237 148.159C522.421 147.648 513.583 147.648 504.767 148.159C498.656 148.779 492.6 149.86 486.651 151.392Z" fill="#407BFF"/>
<path opacity="0.2" d="M486.651 151.392C486.651 151.392 470.841 186.571 480.061 252.072H542.36C543.35 242.512 540.07 195.853 551.936 150.804C545.102 149.468 538.187 148.585 531.237 148.159C522.421 147.648 513.583 147.648 504.767 148.159C498.656 148.779 492.6 149.86 486.651 151.392Z" fill="black"/>
<g style="mix-blend-mode:multiply">
<path d="M472.202 560.24C472.109 561.911 495.732 563.257 524.956 563.257C554.179 563.257 577.972 561.911 578.065 560.24C578.158 558.569 554.55 557.239 525.311 557.239C496.073 557.239 472.31 558.585 472.202 560.24Z" fill="#E8ECF1"/>
</g>
<path d="M513.787 516.34L502.738 520.617L512.255 545.205L523.305 540.928L513.787 516.34Z" fill="#E58A7B"/>
<path d="M563.059 548.344H551.41L547.14 521.379H558.789L563.059 548.344Z" fill="#E58A7B"/>
<path d="M550.605 546.998H563.693C563.92 546.998 564.14 547.08 564.313 547.227C564.485 547.374 564.6 547.578 564.637 547.802L566.323 558.152C566.359 558.412 566.338 558.676 566.262 558.927C566.187 559.178 566.058 559.409 565.885 559.606C565.711 559.803 565.498 559.96 565.259 560.066C565.019 560.173 564.76 560.227 564.498 560.225C559.934 560.148 557.737 559.869 551.982 559.869C548.44 559.869 541.153 560.24 536.234 560.24C531.314 560.24 530.989 555.414 533.016 554.965C542.112 553 545.639 550.324 548.672 547.725C549.206 547.255 549.894 546.997 550.605 546.998Z" fill="#263238"/>
<path d="M511.93 543.006L524.306 539.386C524.527 539.324 524.762 539.339 524.973 539.429C525.184 539.519 525.358 539.679 525.466 539.881L530.107 549.164C530.215 549.399 530.27 549.655 530.269 549.914C530.267 550.173 530.209 550.429 530.099 550.663C529.988 550.897 529.828 551.105 529.629 551.27C529.43 551.436 529.197 551.557 528.947 551.623C524.445 552.861 521.428 553.619 515.797 555.259C511.914 556.388 507.954 558.229 504.117 559.451C501.456 560.302 495.206 560.333 491.973 560.333C487.193 560.333 486.125 555.29 488.183 555.058C493.365 554.485 494.061 554.748 496.923 553.31C501.606 551.263 505.851 548.332 509.423 544.677C510.097 543.909 510.962 543.333 511.93 543.006Z" fill="#263238"/>
<path d="M421.939 211.123L409.13 205.755L403.854 219.956C409.105 220.756 414.446 220.756 419.696 219.956L421.939 211.123Z" fill="#E58A7B"/>
<path d="M399.6 205.383L399.26 214.82L403.854 219.925L409.13 205.724L399.6 205.383Z" fill="#E58A7B"/>
<path d="M515.303 518.428L504.219 522.707L509.128 535.422L520.212 531.143L515.303 518.428Z" fill="#CF6F64"/>
<path d="M558.789 521.379H547.14L549.352 535.287H561.001L558.789 521.379Z" fill="#CF6F64"/>
<path opacity="0.2" d="M478.081 234.359C478.313 237.159 478.576 240.021 478.916 242.96L525.234 227.923C532.467 225.78 538.754 221.234 543.056 215.037C543.242 210.906 543.474 206.559 543.829 202.026C543.984 199.829 544.17 197.571 544.371 195.281C544.572 192.992 544.851 190.454 545.144 188.01L478.081 234.359Z" fill="black"/>
<path d="M493.211 183.617L491.664 183.431C492.576 175.696 498.347 169.601 504.427 169.755V171.302C499.105 171.194 494.031 176.686 493.211 183.617Z" fill="white"/>
<path d="M501.456 197.895H501.193V196.348C506.515 196.55 511.512 190.996 512.332 184.081L513.879 184.266C513.059 191.831 507.474 197.895 501.456 197.895Z" fill="white"/>
<path d="M530.37 118.347C528.189 126.872 525.621 142.481 531.237 148.159C531.237 148.159 527.307 156.807 511.481 156.807C497.016 156.807 504.767 148.159 504.767 148.159C514.389 145.9 514.56 138.877 513.291 132.224L530.37 118.347Z" fill="#E58A7B"/>
<path d="M523.408 124.01L513.306 132.224C513.62 133.753 513.801 135.306 513.848 136.865C516.803 139.805 522.728 132.364 523.331 128.558C523.638 127.06 523.664 125.517 523.408 124.01Z" fill="#CF6F64"/>
<path d="M495.934 118.239C496.637 119.457 497.583 120.518 498.715 121.353C499.846 122.189 501.137 122.783 502.508 123.097C506.221 123.917 508.078 120.498 507.057 117.063C506.144 113.969 503.096 109.808 499.322 110.519C498.513 110.686 497.756 111.044 497.114 111.563C496.472 112.082 495.964 112.748 495.633 113.504C495.301 114.26 495.155 115.084 495.207 115.908C495.26 116.732 495.509 117.531 495.934 118.239Z" fill="#CF6F64"/>
<path d="M502.075 90.9652C496.289 93.6106 494.247 116.599 501.518 120.003C508.789 123.406 513.028 85.9373 502.075 90.9652Z" fill="#263238"/>
<path d="M532.134 105.523C530.741 117.063 530.587 123.855 524.399 129.764C522.481 131.726 520.059 133.119 517.4 133.79C514.74 134.461 511.947 134.384 509.329 133.568C506.71 132.752 504.368 131.228 502.561 129.164C500.754 127.101 499.553 124.578 499.089 121.875C497.217 111.51 499.801 94.3839 511.373 89.7893C513.804 88.7168 516.478 88.3143 519.117 88.6232C521.757 88.9322 524.265 89.9415 526.383 91.5465C528.501 93.1515 530.151 95.2937 531.162 97.7512C532.173 100.209 532.509 102.892 532.134 105.523Z" fill="#E58A7B"/>
<path d="M513.121 96.9366C521.691 94.7553 527.988 93.2702 525.729 100.402C522.743 109.932 519.154 119.152 523.965 119.57C526.905 119.833 539.9 114.325 538.244 108.74C536.806 103.883 542.885 102.552 543.968 100.093C547.975 91.1817 536.512 92.3574 538.554 86.9428C540.596 81.5282 529.272 72.803 523.084 77.1502C513.012 84.1737 495.732 84.0654 504.813 72.5091C511.326 64.2634 499.708 65.9497 499.708 65.9497C499.708 65.9497 506.731 70.1112 494.912 76.5468C482.412 83.4156 493.876 101.872 513.121 96.9366Z" fill="#263238"/>
<path d="M536.682 118.239C534.99 120.687 532.448 122.419 529.55 123.097C525.729 123.917 524.26 120.498 525.698 117.063C526.982 113.969 530.51 109.808 534.161 110.519C537.812 111.231 538.647 115.207 536.682 118.239Z" fill="#E58A7B"/>
<path d="M480.061 252.072C480.061 252.072 469.603 345.668 468.783 381.187C467.948 418.13 504.225 533.399 504.225 533.399L522.79 525.664C522.79 525.664 501.131 420.343 504.225 384.065C507.505 344.507 521.057 252.134 521.057 252.134L480.061 252.072Z" fill="#407BFF"/>
<path opacity="0.2" d="M506.051 277.769C497.712 295.064 503.328 329.269 507.845 349.535C509.563 335.225 511.605 319.693 513.538 305.321C513.353 283.23 511.636 266.166 506.051 277.769Z" fill="black"/>
<path d="M521.97 519.538C522.063 519.538 524.167 525.448 524.167 525.448L502.756 534.451L499.383 528.17L521.97 519.538Z" fill="#407BFF"/>
<path d="M502.168 252.072C502.168 252.072 510.166 341.088 515.457 374.427C521.274 410.952 544.077 532.595 544.077 532.595H565.41C565.41 532.595 552.632 413.907 550.219 377.737C547.589 338.505 542.36 252.072 542.36 252.072H502.168Z" fill="#407BFF"/>
<path d="M565.735 527.041C565.828 527.041 566.447 532.997 566.447 532.997H542.994L541.323 526.159L565.735 527.041Z" fill="#407BFF"/>
<path opacity="0.2" d="M557.567 519.987C557.519 519.987 557.472 519.97 557.435 519.939C557.398 519.908 557.373 519.864 557.366 519.817C557.242 518.734 545.717 411.525 543.551 379.037C541.199 343.796 536.466 265.625 536.419 264.836C536.417 264.81 536.42 264.784 536.429 264.76C536.437 264.735 536.45 264.713 536.468 264.694C536.485 264.675 536.506 264.66 536.53 264.65C536.554 264.64 536.579 264.634 536.605 264.634C536.656 264.634 536.704 264.653 536.742 264.688C536.779 264.722 536.802 264.769 536.806 264.82C536.806 265.609 541.586 343.718 543.938 379.022C546.104 411.509 557.629 518.641 557.737 519.801C557.742 519.827 557.741 519.853 557.734 519.878C557.728 519.903 557.716 519.927 557.7 519.947C557.684 519.968 557.664 519.984 557.641 519.997C557.618 520.009 557.593 520.016 557.567 520.018V519.987Z" fill="black"/>
<path d="M514.436 108.74C514.436 109.684 513.848 110.442 513.229 110.442C512.61 110.442 512.162 109.684 512.223 108.74C512.285 107.797 512.811 107.039 513.43 107.039C514.049 107.039 514.498 107.812 514.436 108.74Z" fill="#263238"/>
<path d="M503.823 108.74C503.823 109.684 503.22 110.442 502.617 110.442C502.013 110.442 501.549 109.684 501.596 108.74C501.642 107.797 502.199 107.039 502.818 107.039C503.437 107.039 503.885 107.812 503.823 108.74Z" fill="#263238"/>
<path d="M507.165 109.22C505.874 112.102 504.209 114.801 502.214 117.249C503.761 118.796 506.654 118.084 506.654 118.084L507.165 109.22Z" fill="#DF5753"/>
<path d="M507.443 122.029C507.408 122.03 507.372 122.022 507.339 122.008C507.306 121.994 507.276 121.973 507.252 121.947C507.227 121.921 507.208 121.89 507.196 121.856C507.184 121.823 507.178 121.787 507.18 121.751C507.184 121.676 507.217 121.605 507.272 121.553C507.326 121.501 507.399 121.472 507.474 121.473C508.658 121.481 509.828 121.224 510.898 120.72C511.969 120.217 512.914 119.48 513.662 118.564C513.716 118.517 513.785 118.492 513.856 118.492C513.927 118.492 513.996 118.517 514.049 118.564C514.099 118.616 514.127 118.685 514.127 118.757C514.127 118.83 514.099 118.899 514.049 118.951C513.248 119.925 512.238 120.707 511.095 121.239C509.952 121.772 508.704 122.042 507.443 122.029Z" fill="#263238"/>
<path d="M516.323 105.894C516.249 105.932 516.167 105.952 516.084 105.952C516 105.952 515.918 105.932 515.844 105.894C515.265 105.52 514.606 105.287 513.921 105.214C513.236 105.142 512.543 105.232 511.899 105.476C511.836 105.508 511.768 105.526 511.697 105.531C511.627 105.535 511.557 105.526 511.491 105.503C511.424 105.479 511.363 105.443 511.311 105.396C511.259 105.349 511.217 105.292 511.187 105.229C511.13 105.091 511.128 104.936 511.183 104.798C511.238 104.659 511.345 104.547 511.481 104.486C512.29 104.156 513.166 104.025 514.036 104.106C514.906 104.187 515.744 104.477 516.478 104.95C516.537 104.991 516.588 105.042 516.627 105.102C516.666 105.162 516.693 105.23 516.706 105.3C516.719 105.371 516.718 105.443 516.703 105.513C516.687 105.583 516.658 105.65 516.617 105.708C516.539 105.797 516.437 105.861 516.323 105.894Z" fill="#263238"/>
<path d="M499.724 102.8C499.641 102.78 499.566 102.737 499.507 102.676C499.456 102.626 499.415 102.566 499.387 102.499C499.359 102.433 499.344 102.361 499.344 102.289C499.344 102.217 499.359 102.146 499.387 102.08C499.415 102.013 499.456 101.953 499.507 101.903C500.1 101.238 500.838 100.719 501.665 100.386C502.491 100.053 503.384 99.9157 504.272 99.9844C504.343 99.9953 504.411 100.021 504.472 100.059C504.533 100.098 504.585 100.148 504.626 100.208C504.667 100.267 504.695 100.334 504.708 100.405C504.722 100.476 504.721 100.548 504.705 100.619C504.672 100.762 504.588 100.888 504.468 100.974C504.348 101.059 504.202 101.098 504.055 101.083C503.352 101.038 502.649 101.155 501.997 101.423C501.346 101.691 500.764 102.104 500.296 102.63C500.225 102.708 500.135 102.765 500.034 102.795C499.933 102.825 499.825 102.827 499.724 102.8Z" fill="#263238"/>
<path d="M557.923 166.027L541.834 161.742C541.834 161.742 526.054 200.587 520.469 203.109C512.889 206.574 493.69 218.579 485.522 224.257C485.073 226.191 485.429 231.311 486.45 232.719C500.373 230.182 527.029 219.925 532.598 214.712C545.299 202.815 557.923 166.027 557.923 166.027Z" fill="#E58A7B"/>
<path d="M546.691 549.04C545.906 549.102 545.124 548.889 544.479 548.437C544.28 548.257 544.131 548.028 544.047 547.773C543.963 547.518 543.946 547.246 544 546.982C544.009 546.818 544.063 546.659 544.156 546.523C544.249 546.387 544.376 546.278 544.526 546.209C545.825 545.544 549.461 547.849 549.878 548.112C549.924 548.14 549.96 548.182 549.979 548.233C549.999 548.283 550.001 548.338 549.987 548.39C549.973 548.444 549.946 548.494 549.909 548.534C549.871 548.575 549.823 548.605 549.77 548.622C548.761 548.87 547.729 549.01 546.691 549.04ZM545.144 546.627C545.027 546.6 544.906 546.6 544.789 546.627C544.729 546.657 544.68 546.703 544.647 546.761C544.614 546.819 544.599 546.885 544.603 546.951C544.562 547.131 544.569 547.319 544.623 547.496C544.677 547.672 544.777 547.831 544.912 547.957C545.516 548.498 547.032 548.56 549.027 548.174C547.839 547.391 546.501 546.864 545.098 546.627H545.144Z" fill="#407BFF"/>
<path d="M549.693 548.622C549.652 548.635 549.609 548.635 549.569 548.622C548.409 547.972 546.227 545.42 546.552 544.12C546.601 543.914 546.717 543.731 546.883 543.599C547.048 543.467 547.253 543.394 547.465 543.393C547.673 543.365 547.884 543.383 548.084 543.444C548.284 543.506 548.469 543.61 548.625 543.749C549.909 544.847 549.987 548.22 549.987 548.39C549.994 548.441 549.984 548.493 549.959 548.538C549.934 548.582 549.895 548.618 549.847 548.638C549.795 548.648 549.741 548.643 549.693 548.622ZM547.62 543.904H547.511C547.155 543.904 547.109 544.105 547.094 544.182C546.908 544.94 548.285 546.874 549.43 547.787C549.424 546.48 549.02 545.206 548.269 544.136C548.09 543.979 547.858 543.896 547.62 543.904Z" fill="#407BFF"/>
<path d="M505.618 547.106C504.671 547.436 503.641 547.436 502.694 547.106C502.479 546.99 502.297 546.821 502.164 546.615C502.032 546.41 501.953 546.174 501.936 545.93C501.916 545.777 501.936 545.622 501.993 545.478C502.049 545.335 502.142 545.208 502.261 545.11C503.498 543.996 508.557 545.11 509.129 545.327C509.184 545.341 509.232 545.373 509.266 545.418C509.299 545.463 509.317 545.518 509.315 545.574C509.317 545.633 509.303 545.69 509.272 545.739C509.242 545.789 509.198 545.829 509.145 545.853C508.006 546.367 506.826 546.786 505.618 547.106ZM503.096 545.265C502.919 545.301 502.754 545.38 502.617 545.497C502.567 545.534 502.529 545.584 502.507 545.642C502.486 545.699 502.48 545.762 502.493 545.822C502.503 545.984 502.553 546.142 502.64 546.279C502.726 546.417 502.846 546.531 502.988 546.611C503.808 547.044 505.711 546.704 508.17 545.667C506.513 545.249 504.798 545.113 503.096 545.265Z" fill="#407BFF"/>
<path d="M509.099 545.853H508.975C507.428 545.574 504.334 543.795 504.241 542.465C504.241 542.155 504.38 541.722 505.123 541.475C505.374 541.385 505.64 541.348 505.906 541.364C506.172 541.38 506.431 541.449 506.67 541.568C508.341 542.388 509.222 545.358 509.269 545.497C509.28 545.544 509.278 545.593 509.265 545.639C509.251 545.685 509.226 545.727 509.191 545.76C509.168 545.798 509.137 545.83 509.099 545.853ZM505.432 541.939H505.277C504.798 542.109 504.798 542.31 504.798 542.372C504.798 543.177 507.041 544.646 508.604 545.141C508.244 543.899 507.482 542.811 506.438 542.047C506.127 541.889 505.769 541.851 505.432 541.939Z" fill="#407BFF"/>
<path d="M486.837 223.344L470.701 230.77L468.83 235.411L474.786 239.418C474.786 239.418 485.924 238.211 489.096 231.049L486.837 223.344Z" fill="#E58A7B"/>
<path d="M487.518 232.982C487.157 229.882 486.134 226.896 484.517 224.226L487.069 222.308C488.989 225.384 490.214 228.842 490.658 232.441L487.518 232.982Z" fill="#263238"/>
<path d="M490.271 225.541C490.613 226.077 490.78 226.706 490.751 227.341C490.723 227.976 490.499 228.587 490.111 229.091C489.722 229.594 489.188 229.966 488.581 230.155C487.974 230.344 487.324 230.342 486.718 230.148C486.113 229.955 485.582 229.579 485.197 229.073C484.812 228.567 484.593 227.954 484.569 227.319C484.544 226.684 484.717 226.056 485.061 225.522C485.406 224.988 485.908 224.573 486.497 224.334C487.158 223.997 487.925 223.935 488.632 224.161C489.339 224.387 489.928 224.883 490.271 225.541Z" fill="#263238"/>
<path d="M459.795 236.772L461.945 238.938L476.425 232.75L470.701 230.77L459.795 236.772Z" fill="#E58A7B"/>
<path opacity="0.2" d="M521.97 519.538C522.063 519.538 524.167 525.448 524.167 525.448L502.756 534.451L499.383 528.17L521.97 519.538Z" fill="black"/>
<path opacity="0.2" d="M565.735 527.041C565.828 527.041 566.447 532.997 566.447 532.997H542.994L541.323 526.159L565.735 527.041Z" fill="black"/>
<path d="M562.115 161.571C566.37 175.294 549.739 194.059 549.739 194.059L526.766 184.684C529.489 176.753 532.628 168.971 536.172 161.37C543.226 146.163 557.814 147.726 562.115 161.571Z" fill="#407BFF"/>
<path opacity="0.2" d="M562.115 161.571C566.37 175.294 549.739 194.059 549.739 194.059L526.766 184.684C529.489 176.753 532.628 168.971 536.172 161.37C543.226 146.163 557.814 147.726 562.115 161.571Z" fill="black"/>
<path d="M333.836 24.0871H323.95V25.6805H333.836V24.0871Z" fill="#407BFF"/>
<path d="M461.803 87.154L460.607 113.705L462.199 113.777L463.395 87.2257L461.803 87.154Z" fill="#407BFF"/>
<path d="M458.727 31.2343H276.178L259.191 411.37H441.741L458.727 31.2343Z" fill="#407BFF"/>
<path opacity="0.56" d="M453.282 36.4632H270.732L253.746 416.599H436.295L453.282 36.4632Z" fill="#FAFAFA"/>
<path opacity="0.07" d="M447.836 41.6768H265.287L248.285 421.812H430.834L447.836 41.6768Z" fill="#407BFF"/>
<path d="M427.059 207.472H271.243L269.943 236.556H425.76L427.059 207.472Z" fill="white"/>
<path d="M356.933 186.246H272.187L271.614 199.257H356.36L356.933 186.246Z" fill="#407BFF"/>
<path d="M423.548 285.968H267.731L266.432 315.052H422.248L423.548 285.968Z" fill="white"/>
<path opacity="0.47" d="M394.974 354.331H290.194L288.631 389.185H393.411L394.974 354.331Z" fill="#407BFF"/>
<path d="M387.967 394.6H283.186C283.141 394.612 283.093 394.612 283.047 394.6C283.032 394.555 283.032 394.506 283.047 394.461L284.594 359.591C284.594 359.567 284.599 359.544 284.608 359.522C284.618 359.5 284.632 359.481 284.649 359.465C284.667 359.449 284.687 359.437 284.71 359.429C284.732 359.421 284.756 359.419 284.78 359.421H389.56C389.579 359.411 389.6 359.406 389.622 359.406C389.643 359.406 389.664 359.411 389.684 359.421C389.695 359.439 389.7 359.461 389.7 359.483C389.7 359.504 389.695 359.526 389.684 359.544L388.168 394.492C388.149 394.528 388.12 394.558 388.084 394.577C388.048 394.597 388.007 394.605 387.967 394.6ZM283.372 394.229H387.781L389.328 359.73H284.919L283.372 394.229Z" fill="white"/>
<path d="M338.632 264.743H268.675L268.103 277.769H338.044L338.632 264.743Z" fill="#407BFF"/>
<path d="M392.978 113.521C392.578 121.985 389.568 130.118 384.361 136.803C380.507 141.853 375.547 145.953 369.861 148.787C364.176 151.622 357.917 153.116 351.564 153.156C346.431 153.195 341.344 152.182 336.616 150.181C331.889 148.18 327.621 145.232 324.076 141.518C320.531 137.805 317.784 133.406 316.003 128.591C314.223 123.776 313.447 118.647 313.724 113.521C314.268 102.883 318.855 92.8557 326.548 85.4883C334.24 78.121 344.456 73.9706 355.107 73.8859C360.245 73.838 365.337 74.8441 370.07 76.842C374.804 78.8399 379.077 81.7871 382.626 85.5017C386.176 89.2163 388.925 93.6192 390.706 98.4384C392.486 103.258 393.26 108.391 392.978 113.521Z" fill="white"/>
<path d="M396.707 82.1779C396.606 84.4286 395.806 86.5917 394.418 88.366C393.39 89.7073 392.07 90.7961 390.558 91.5495C389.046 92.3029 387.382 92.7009 385.692 92.7132C384.055 92.7231 382.441 92.3321 380.99 91.5743C379.539 90.8166 378.296 89.7151 377.369 88.366C376.142 86.5431 375.534 84.3732 375.637 82.1779C375.786 79.3537 377.007 76.6929 379.051 74.7381C381.095 72.7833 383.808 71.6818 386.636 71.6581C388 71.6457 389.353 71.9127 390.61 72.4428C391.867 72.973 393.003 73.7549 393.946 74.7405C394.89 75.726 395.621 76.8944 396.096 78.1735C396.571 79.4526 396.779 80.8154 396.707 82.1779Z" fill="#407BFF"/>
<path d="M288.028 222.014C287.954 223.26 287.41 224.432 286.505 225.294C285.601 226.155 284.404 226.641 283.155 226.655C282.552 226.662 281.954 226.545 281.398 226.312C280.842 226.079 280.339 225.734 279.922 225.299C279.504 224.864 279.18 224.348 278.97 223.783C278.76 223.218 278.668 222.616 278.699 222.014C278.767 220.765 279.308 219.588 280.214 218.725C281.12 217.863 282.322 217.379 283.573 217.373C284.175 217.368 284.772 217.486 285.327 217.72C285.882 217.954 286.384 218.298 286.801 218.733C287.218 219.167 287.542 219.683 287.753 220.247C287.964 220.811 288.058 221.412 288.028 222.014Z" fill="#263238"/>
<path d="M308.882 222.014C308.812 223.262 308.268 224.436 307.363 225.298C306.458 226.16 305.259 226.645 304.009 226.655C303.407 226.66 302.811 226.542 302.257 226.308C301.703 226.074 301.202 225.729 300.786 225.294C300.37 224.859 300.048 224.344 299.838 223.78C299.629 223.216 299.537 222.615 299.569 222.014C299.636 220.767 300.176 219.593 301.078 218.731C301.981 217.868 303.178 217.383 304.427 217.373C305.03 217.365 305.628 217.482 306.184 217.715C306.74 217.948 307.242 218.293 307.66 218.728C308.078 219.163 308.401 219.679 308.612 220.244C308.822 220.809 308.914 221.412 308.882 222.014Z" fill="#263238"/>
<path d="M329.751 222.014C329.681 223.262 329.138 224.436 328.232 225.298C327.327 226.16 326.128 226.645 324.878 226.655C324.276 226.66 323.679 226.542 323.124 226.308C322.569 226.074 322.067 225.729 321.65 225.295C321.233 224.86 320.909 224.345 320.698 223.781C320.487 223.217 320.393 222.615 320.423 222.014C320.494 220.766 321.037 219.592 321.942 218.73C322.847 217.868 324.046 217.382 325.296 217.373C325.899 217.365 326.497 217.482 327.053 217.715C327.609 217.948 328.111 218.293 328.529 218.728C328.947 219.163 329.271 219.679 329.481 220.244C329.691 220.809 329.783 221.412 329.751 222.014Z" fill="#263238"/>
<path d="M284.516 300.51C284.442 301.756 283.898 302.929 282.994 303.79C282.089 304.651 280.892 305.137 279.643 305.151C279.041 305.156 278.444 305.038 277.889 304.804C277.334 304.57 276.832 304.225 276.415 303.791C275.998 303.356 275.674 302.841 275.463 302.277C275.252 301.713 275.158 301.111 275.188 300.51C275.259 299.262 275.802 298.088 276.707 297.226C277.612 296.364 278.811 295.879 280.061 295.869C280.663 295.864 281.26 295.982 281.815 296.216C282.371 296.45 282.872 296.794 283.289 297.229C283.706 297.663 284.03 298.179 284.241 298.743C284.452 299.307 284.546 299.908 284.516 300.51Z" fill="#263238"/>
<path d="M305.37 300.51C305.3 301.755 304.759 302.927 303.857 303.789C302.955 304.65 301.76 305.137 300.513 305.151C299.91 305.158 299.312 305.042 298.756 304.808C298.2 304.575 297.697 304.231 297.28 303.796C296.862 303.361 296.538 302.845 296.328 302.279C296.118 301.714 296.026 301.112 296.057 300.51C296.128 299.262 296.671 298.088 297.576 297.226C298.481 296.364 299.681 295.879 300.931 295.869C301.532 295.864 302.128 295.982 302.683 296.216C303.237 296.45 303.738 296.795 304.153 297.23C304.569 297.665 304.892 298.18 305.101 298.744C305.311 299.308 305.402 299.909 305.37 300.51Z" fill="#263238"/>
<path d="M326.286 300.51C326.216 301.758 325.672 302.932 324.767 303.794C323.862 304.656 322.663 305.141 321.413 305.151C320.811 305.154 320.215 305.034 319.661 304.799C319.107 304.565 318.607 304.22 318.19 303.786C317.773 303.352 317.449 302.838 317.237 302.274C317.026 301.711 316.93 301.111 316.958 300.51C317.032 299.263 317.576 298.091 318.48 297.23C319.385 296.369 320.582 295.882 321.831 295.869C322.434 295.862 323.032 295.978 323.588 296.211C324.144 296.444 324.646 296.789 325.064 297.224C325.482 297.659 325.805 298.175 326.016 298.74C326.226 299.305 326.318 299.908 326.286 300.51Z" fill="#263238"/>
<path d="M347.109 300.51C347.035 301.756 346.491 302.929 345.586 303.79C344.682 304.651 343.485 305.137 342.236 305.151C341.634 305.154 341.038 305.034 340.484 304.799C339.93 304.565 339.43 304.22 339.013 303.786C338.596 303.352 338.272 302.838 338.06 302.274C337.848 301.711 337.753 301.111 337.78 300.51C337.855 299.263 338.399 298.091 339.303 297.23C340.208 296.369 341.405 295.882 342.654 295.869C343.256 295.864 343.853 295.982 344.408 296.216C344.963 296.45 345.464 296.794 345.882 297.229C346.299 297.663 346.623 298.179 346.834 298.743C347.045 299.307 347.139 299.908 347.109 300.51Z" fill="#263238"/>
<path d="M368.056 300.51C367.982 301.756 367.437 302.929 366.533 303.79C365.629 304.651 364.432 305.137 363.183 305.151C362.58 305.158 361.982 305.042 361.426 304.808C360.87 304.575 360.367 304.231 359.95 303.796C359.532 303.361 359.208 302.845 358.998 302.279C358.788 301.714 358.696 301.112 358.727 300.51C358.798 299.262 359.341 298.088 360.246 297.226C361.151 296.364 362.351 295.879 363.6 295.869C364.203 295.864 364.8 295.982 365.355 296.216C365.91 296.45 366.411 296.794 366.828 297.229C367.246 297.663 367.57 298.179 367.781 298.743C367.992 299.307 368.085 299.908 368.056 300.51Z" fill="#263238"/>
<path d="M364.89 111.456C371.365 105.124 371.709 94.9748 365.657 88.7868C359.606 82.5988 349.451 82.7156 342.976 89.0476C336.501 95.3797 336.158 105.529 342.209 111.717C348.26 117.905 358.415 117.789 364.89 111.456Z" fill="#407BFF"/>
<path d="M384.362 136.803C380.507 141.853 375.547 145.953 369.862 148.787C364.176 151.622 357.917 153.116 351.565 153.155C345.405 153.208 339.326 151.743 333.866 148.892C328.405 146.04 323.73 141.889 320.253 136.803C327.771 129.316 339.668 124.427 352.849 124.427C366.029 124.427 377.508 129.316 384.362 136.803Z" fill="#407BFF"/>
<path opacity="0.1" d="M364.89 111.456C371.365 105.124 371.709 94.9748 365.657 88.7868C359.606 82.5988 349.451 82.7156 342.976 89.0476C336.501 95.3797 336.158 105.529 342.209 111.717C348.26 117.905 358.415 117.789 364.89 111.456Z" fill="white"/>
<path opacity="0.1" d="M384.362 136.803C380.507 141.853 375.547 145.953 369.862 148.787C364.176 151.622 357.917 153.116 351.565 153.155C345.405 153.208 339.326 151.743 333.866 148.892C328.405 146.04 323.73 141.889 320.253 136.803C327.771 129.316 339.668 124.427 352.849 124.427C366.029 124.427 377.508 129.316 384.362 136.803Z" fill="white"/>
<path d="M156.748 243.564C155.278 246.782 153.731 250.324 152.385 253.759C151.039 257.193 149.662 260.736 148.471 264.263C146.039 271.214 144.186 278.355 142.933 285.612L142.592 287.886C142.56 288.276 142.597 288.669 142.701 289.046C143.066 290.328 143.641 291.541 144.402 292.635C146.389 295.468 148.694 298.063 151.271 300.371C153.989 302.898 156.839 305.279 159.811 307.502C162.781 309.792 165.906 312.02 168.985 314.124L166.092 319.554C158.741 316.351 151.763 312.351 145.284 307.626C141.828 305.105 138.708 302.152 136.002 298.839C134.398 296.867 133.147 294.632 132.305 292.233C131.815 290.735 131.564 289.169 131.562 287.592C131.562 287.221 131.562 286.679 131.562 286.416V285.658L131.717 284.111C132.604 276.051 134.298 268.101 136.775 260.38C137.982 256.574 139.266 252.784 140.736 249.087C142.206 245.389 143.722 241.769 145.594 238.01L156.748 243.564Z" fill="#E58A7B"/>
<path d="M166.803 313.164L177.741 307.626L174.91 319.631C174.91 319.631 167.407 321.735 163.926 318.084L166.803 313.164Z" fill="#E58A7B"/>
<path d="M187.75 309.591L184.842 319.523L174.91 319.631L177.741 307.626L187.75 309.591Z" fill="#E58A7B"/>
<path d="M203.189 185.643C203.774 187.787 204.588 189.862 205.618 191.831C205.317 192.172 204.93 192.426 204.497 192.565C204.064 192.703 203.601 192.723 203.158 192.62L203.189 185.643Z" fill="#DF5753"/>
<path d="M202.864 185.736C203.505 185.736 204.025 184.939 204.025 183.957C204.025 182.974 203.505 182.178 202.864 182.178C202.224 182.178 201.704 182.974 201.704 183.957C201.704 184.939 202.224 185.736 202.864 185.736Z" fill="#263238"/>
<path d="M202.524 182.24L204.875 181.574C204.875 181.574 203.731 183.4 202.524 182.24Z" fill="#263238"/>
<path d="M172.976 196.998C174.384 204.192 175.791 217.388 170.748 222.199C170.748 222.199 172.728 229.501 186.11 229.501C200.822 229.501 193.134 222.199 193.134 222.199C185.104 220.281 185.306 214.325 186.713 208.725L172.976 196.998Z" fill="#E58A7B"/>
<path d="M169.062 180.6C169.804 192.62 169.866 197.725 175.931 203.898C185.074 213.18 199.678 209.653 202.54 197.71C205.123 186.881 203.483 169.059 191.71 164.279C189.126 163.214 186.313 162.826 183.537 163.152C180.761 163.478 178.115 164.506 175.847 166.14C173.58 167.774 171.766 169.96 170.579 172.49C169.392 175.02 168.87 177.812 169.062 180.6Z" fill="#E58A7B"/>
<path d="M170.253 167.079C164.22 169.275 156.175 167.636 159.331 186.246C162.673 205.955 157.537 212.438 157.537 212.438C157.537 212.438 180.417 217.311 203.777 212.144C203.777 212.144 196.645 199.675 198.641 190.485C201.194 178.882 199.183 174.597 199.183 174.597C199.183 174.597 178.731 163.985 170.253 167.079Z" fill="#263238"/>
<path d="M195.779 186.865C195.785 189.151 196.44 191.388 197.666 193.316C199.306 195.823 201.24 194.863 201.719 192.203C202.153 189.867 201.828 185.736 199.739 184.127C197.651 182.518 195.81 184.096 195.779 186.865Z" fill="#E58A7B"/>
<path d="M165.009 169.105C163.276 164.232 171.537 156.729 189.018 159.823C206.5 162.917 207.258 177.475 207.258 177.475L203.731 173.267L203.885 177.691L185.924 181.141L165.009 169.105Z" fill="#263238"/>
<path d="M166.494 223.019C166.391 222.313 166.568 221.594 166.987 221.016C167.406 220.438 168.034 220.047 168.737 219.925C174.183 219.028 186.559 217.202 192.778 218.069C197.419 218.719 198.626 221.41 198.827 223.623C198.858 224.01 198.807 224.4 198.675 224.765C198.543 225.131 198.335 225.464 198.064 225.743C197.793 226.021 197.465 226.238 197.103 226.38C196.741 226.521 196.353 226.583 195.965 226.562L169.078 225.355C168.444 225.323 167.84 225.073 167.37 224.648C166.899 224.222 166.59 223.647 166.494 223.019Z" fill="#407BFF"/>
<path opacity="0.6" d="M166.494 223.019C166.391 222.313 166.568 221.594 166.987 221.016C167.406 220.438 168.034 220.047 168.737 219.925C174.183 219.028 186.559 217.202 192.778 218.069C197.419 218.719 198.626 221.41 198.827 223.623C198.858 224.01 198.807 224.4 198.675 224.765C198.543 225.131 198.335 225.464 198.064 225.743C197.793 226.021 197.465 226.238 197.103 226.38C196.741 226.521 196.353 226.583 195.965 226.562L169.078 225.355C168.444 225.323 167.84 225.073 167.37 224.648C166.899 224.222 166.59 223.647 166.494 223.019Z" fill="black"/>
<path d="M182.042 493.285L192.02 500.215L208.712 477.582L198.734 470.667L182.042 493.285Z" fill="#E58A7B"/>
<path d="M158.774 492.836L169.309 498.839L184.083 474.906L173.548 468.904L158.774 492.836Z" fill="#E58A7B"/>
<path d="M208.697 477.582L200.096 489.247L190.117 482.332L198.719 470.667L208.697 477.582Z" fill="#CF6F64"/>
<path d="M173.533 468.904L184.083 474.922L176.472 487.251L165.921 481.234L173.533 468.904Z" fill="#CF6F64"/>
<path d="M190.457 298.576C190.457 298.576 229.412 347.663 222.094 394.615C216.2 432.533 182.011 483.879 182.011 483.879L165.937 475.896C177.267 453.194 186.935 429.7 194.867 405.599C197.312 398.117 198.026 390.177 196.954 382.378C195.882 374.579 193.052 367.126 188.678 360.581C168.938 331.76 137.317 348.916 158.589 298.576H190.457Z" fill="#407BFF"/>
<path opacity="0.6" d="M190.457 298.576C190.457 298.576 229.412 347.663 222.094 394.615C216.2 432.533 182.011 483.879 182.011 483.879L165.937 475.896C177.267 453.194 186.935 429.7 194.867 405.599C197.312 398.117 198.026 390.177 196.954 382.378C195.882 374.579 193.052 367.126 188.678 360.581C168.938 331.76 137.317 348.916 158.589 298.576H190.457Z" fill="black"/>
<path opacity="0.4" d="M209.563 330.104L203.901 324.473C203.901 324.922 214.869 392.635 217.948 411.664C219.765 406.105 221.156 400.416 222.109 394.646C225.729 371.611 218.164 348.081 209.563 330.104Z" fill="black"/>
<path d="M207.846 298.576C207.846 298.576 254.752 360.271 256.082 397.261C257.18 428.201 205.03 488.149 205.03 488.149L189.869 478.341C189.869 478.341 220.392 435.766 228.081 400.989C225.111 366.521 162.301 298.576 162.301 298.576H207.846Z" fill="#407BFF"/>
<path opacity="0.6" d="M207.846 298.576C207.846 298.576 254.752 360.271 256.082 397.261C257.18 428.201 205.03 488.149 205.03 488.149L189.869 478.341C189.869 478.341 220.392 435.766 228.081 400.989C225.111 366.521 162.301 298.576 162.301 298.576H207.846Z" fill="black"/>
<path d="M149.817 224.953C144.804 226.144 139.993 244.368 139.993 244.368L159.594 257.456C159.594 257.456 166.122 243.038 163.833 236.726C161.466 230.151 156.113 223.452 149.817 224.953Z" fill="#407BFF"/>
<path opacity="0.2" d="M153.653 236.695L152.292 252.583L159.578 257.472C161.59 252.942 163.08 248.198 164.018 243.332L153.653 236.695Z" fill="black"/>
<path d="M213.647 225.309C213.647 225.309 219.433 227.335 207.846 298.561H158.558C159.393 278.449 159.408 266.073 149.817 224.953C156.718 223.531 163.714 222.61 170.748 222.199C178.2 221.665 185.681 221.665 193.134 222.199C202.756 223.081 213.647 225.309 213.647 225.309Z" fill="#407BFF"/>
<path d="M218.66 236.695C219.773 239.789 220.949 243.115 222.187 246.317C223.424 249.52 224.6 252.815 225.853 256.064L229.643 265.779L230.603 268.208L231.098 269.415L231.33 270.018C231.33 270.126 231.33 270.126 231.33 270.111C231.047 269.712 230.677 269.384 230.247 269.152C229.635 268.791 228.945 268.584 228.236 268.548C227.646 268.53 227.06 268.641 226.518 268.873C225.807 269.198 225.807 269.337 225.822 269.322C225.951 269.219 226.065 269.099 226.163 268.966C227.019 267.842 227.76 266.634 228.375 265.361C229.102 263.938 229.798 262.422 230.494 260.89C231.856 257.796 233.109 254.594 234.362 251.361C235.615 248.127 236.806 244.863 237.966 241.568L241.494 231.698L247.45 233.245C246.274 240.3 244.758 247.168 242.932 254.161C242.051 257.642 241.014 261.092 239.838 264.572C239.25 266.321 238.601 268.053 237.858 269.832C237.084 271.763 236.131 273.617 235.012 275.371C234.6 275.961 234.145 276.519 233.65 277.041C232.86 277.895 231.901 278.574 230.835 279.037C229.888 279.443 228.863 279.634 227.833 279.594C226.68 279.551 225.557 279.216 224.569 278.619C223.404 277.892 222.436 276.888 221.754 275.695C221.522 275.293 221.32 274.891 221.181 274.597L220.887 274.009L220.299 272.803L219.124 270.405C217.577 267.187 216.03 263.938 214.684 260.674C213.338 257.41 211.915 254.099 210.584 250.773C209.254 247.447 208.062 244.121 206.933 240.532L218.66 236.695Z" fill="#E58A7B"/>
<path d="M213.647 225.309C219.573 226.717 226.24 244.229 226.24 244.229L208.62 259.22C208.62 259.22 197.218 240.129 199.523 233.833C201.921 227.274 205.912 223.468 213.647 225.309Z" fill="#407BFF"/>
<path d="M244.294 226.16L250.482 220.993L254.783 227.691L251.611 233.276C251.611 233.276 246.568 237.917 242.112 235.55C241.405 233.961 241.236 232.184 241.629 230.489C242.023 228.795 242.958 227.275 244.294 226.16Z" fill="#E58A7B"/>
<path d="M261.651 221.008L261.187 222.694L251.395 224.334L250.436 220.993L261.651 221.008Z" fill="#E58A7B"/>
<path d="M206.237 488.938L188.57 477.521L191.741 472.013L211.59 484.219L206.237 488.938Z" fill="#407BFF"/>
<path d="M176.225 498.034C174.675 497.845 173.185 497.317 171.862 496.487C171.808 496.468 171.76 496.433 171.727 496.385C171.693 496.338 171.675 496.282 171.675 496.224C171.675 496.166 171.693 496.11 171.727 496.063C171.76 496.016 171.808 495.98 171.862 495.961C172.342 495.806 176.503 494.522 177.71 495.512C177.846 495.625 177.949 495.772 178.009 495.938C178.068 496.104 178.083 496.283 178.05 496.456C178.029 496.735 177.937 497.003 177.782 497.236C177.628 497.469 177.417 497.658 177.169 497.787C176.879 497.945 176.555 498.03 176.225 498.034ZM172.744 496.332C174.678 497.322 176.225 497.678 176.967 497.307C177.129 497.217 177.265 497.088 177.363 496.931C177.46 496.774 177.516 496.594 177.524 496.41C177.524 496.162 177.524 496.054 177.385 495.992C176.735 495.466 174.415 495.868 172.713 496.332H172.744Z" fill="#263238"/>
<path d="M171.97 496.595C171.889 496.594 171.811 496.561 171.754 496.503C171.731 496.46 171.719 496.412 171.719 496.363C171.719 496.315 171.731 496.267 171.754 496.224C171.754 496.085 172.759 492.728 174.337 491.97C174.539 491.878 174.758 491.83 174.979 491.83C175.201 491.83 175.42 491.878 175.621 491.97C175.839 492.038 176.027 492.178 176.156 492.366C176.285 492.553 176.347 492.779 176.333 493.006C176.225 494.399 173.394 496.317 172.094 496.642L171.97 496.595ZM174.972 492.372C174.821 492.377 174.673 492.414 174.538 492.48C173.579 492.944 172.79 494.754 172.404 495.853C173.765 495.28 175.637 493.764 175.699 492.914C175.699 492.774 175.699 492.604 175.343 492.449C175.227 492.387 175.102 492.345 174.972 492.326V492.372Z" fill="#263238"/>
<path d="M198.301 504.717C196.553 504.717 194.124 502.474 192.793 501.097C192.759 501.05 192.741 500.993 192.741 500.935C192.741 500.877 192.759 500.82 192.793 500.772C192.824 500.723 192.867 500.682 192.919 500.655C192.971 500.627 193.029 500.615 193.087 500.618C193.706 500.618 199.074 501.422 199.832 502.938C199.913 503.074 199.955 503.229 199.955 503.387C199.955 503.545 199.913 503.7 199.832 503.836C199.719 504.072 199.547 504.275 199.333 504.427C199.119 504.578 198.871 504.673 198.61 504.702L198.301 504.717ZM193.815 501.314C195.764 503.201 197.481 504.253 198.456 504.13C198.626 504.107 198.789 504.043 198.929 503.944C199.069 503.844 199.183 503.711 199.26 503.557C199.295 503.504 199.313 503.442 199.313 503.379C199.313 503.316 199.295 503.254 199.26 503.201C198.858 502.366 195.996 501.654 193.815 501.314Z" fill="#263238"/>
<path d="M193.985 501.236C193.637 501.246 193.29 501.22 192.948 501.159C192.9 501.152 192.855 501.133 192.817 501.103C192.779 501.073 192.75 501.034 192.731 500.989C192.708 500.943 192.696 500.893 192.696 500.842C192.696 500.791 192.708 500.741 192.731 500.695C192.824 500.587 194.913 498.065 196.893 497.895C197.454 497.851 198.009 498.029 198.44 498.39C199.043 498.916 199.012 499.38 198.858 499.674C198.471 500.726 195.795 501.236 193.985 501.236ZM193.582 500.664C195.315 500.757 198.084 500.184 198.44 499.426C198.44 499.426 198.564 499.179 198.161 498.839C198.001 498.699 197.814 498.595 197.612 498.531C197.41 498.467 197.197 498.445 196.986 498.467C195.652 498.84 194.464 499.612 193.582 500.68V500.664Z" fill="#263238"/>
<path d="M172.388 494.925L159.269 491.212C159.043 491.143 158.8 491.161 158.585 491.261C158.371 491.361 158.202 491.536 158.109 491.753L153.684 501.701C153.58 501.956 153.532 502.229 153.541 502.504C153.551 502.779 153.618 503.049 153.74 503.296C153.861 503.543 154.033 503.762 154.245 503.937C154.457 504.113 154.703 504.242 154.968 504.315C159.609 505.522 161.837 505.862 167.608 507.518C171.166 508.508 176.24 510.349 181.144 511.741C186.048 513.133 187.688 508.353 185.785 507.332C177.184 502.784 176.503 499.597 174.152 496.193C173.73 495.577 173.106 495.128 172.388 494.925Z" fill="#407BFF"/>
<path d="M193.149 499.287L181.949 491.552C181.759 491.414 181.525 491.35 181.291 491.373C181.057 491.396 180.84 491.503 180.68 491.676L173.254 499.659C173.073 499.865 172.938 500.107 172.858 500.37C172.778 500.632 172.755 500.909 172.79 501.181C172.825 501.453 172.918 501.715 173.062 501.948C173.206 502.182 173.398 502.382 173.626 502.536C177.571 505.181 179.613 506.249 184.548 509.668C187.642 511.772 193.629 516.444 197.806 519.352C201.983 522.261 205.092 518.269 203.607 516.691C196.955 509.59 195.501 505.135 194.402 501.097C194.212 500.365 193.768 499.724 193.149 499.287Z" fill="#407BFF"/>
<path d="M184.068 484.9L163.879 474.86L165.968 469.383L187.533 479.965L184.068 484.9Z" fill="#407BFF"/>
<path d="M157.815 295.668L156.114 300.123C155.943 300.463 156.346 300.819 156.918 300.819H208.094C208.542 300.819 208.914 300.603 208.945 300.324L209.378 295.9C209.378 295.606 209.022 295.343 208.542 295.343H158.62C158.469 295.329 158.318 295.351 158.178 295.407C158.038 295.464 157.914 295.553 157.815 295.668Z" fill="#407BFF"/>
<path opacity="0.4" d="M157.815 295.668L156.114 300.123C155.943 300.463 156.346 300.819 156.918 300.819H208.094C208.542 300.819 208.914 300.603 208.945 300.324L209.378 295.9C209.378 295.606 209.022 295.343 208.542 295.343H158.62C158.469 295.329 158.318 295.351 158.178 295.407C158.038 295.464 157.914 295.553 157.815 295.668Z" fill="white"/>
<path d="M165.875 301.252H164.529C164.266 301.252 164.065 301.113 164.08 300.943L164.715 295.204C164.715 295.049 164.962 294.91 165.225 294.91H166.571C166.834 294.91 167.035 295.049 167.02 295.204L166.386 300.943C166.37 301.113 166.138 301.252 165.875 301.252Z" fill="#407BFF"/>
<path d="M197.434 301.252H196.104C195.841 301.252 195.64 301.113 195.655 300.943L196.274 295.204C196.274 295.049 196.537 294.91 196.8 294.91H198.13C198.393 294.91 198.61 295.049 198.579 295.204L197.96 300.943C197.883 301.113 197.713 301.252 197.434 301.252Z" fill="#407BFF"/>
<g style="mix-blend-mode:multiply">
<path d="M164.699 563.241C187.589 563.241 206.144 561.898 206.144 560.24C206.144 558.583 187.589 557.239 164.699 557.239C141.81 557.239 123.254 558.583 123.254 560.24C123.254 561.898 141.81 563.241 164.699 563.241Z" fill="#F5F5F5"/>
</g>
<path d="M189.947 556.001C182.614 553.866 174.476 551.128 169.557 548.266C169.418 548.173 169.263 548.127 169.124 548.05V514.85H183.96C185.086 514.784 186.144 514.289 186.918 513.468C187.692 512.647 188.123 511.562 188.123 510.434C188.123 509.306 187.692 508.22 186.918 507.399C186.144 506.578 185.086 506.084 183.96 506.017H169.201V354.687H160.29V506.017H145.547C144.945 505.981 144.342 506.069 143.775 506.275C143.208 506.481 142.69 506.8 142.251 507.214C141.812 507.628 141.462 508.127 141.223 508.68C140.984 509.234 140.861 509.831 140.861 510.434C140.861 511.037 140.984 511.633 141.223 512.187C141.462 512.741 141.812 513.24 142.251 513.653C142.69 514.067 143.208 514.387 143.775 514.592C144.342 514.798 144.945 514.886 145.547 514.85H160.29V548.003C160.151 548.003 160.012 548.127 159.872 548.22C154.876 551.128 146.8 553.866 139.467 555.955C138.972 556.105 138.547 556.427 138.268 556.863C137.99 557.299 137.877 557.821 137.95 558.333C138.023 558.846 138.277 559.315 138.666 559.656C139.055 559.997 139.553 560.188 140.071 560.194H189.343C189.838 560.16 190.306 559.958 190.669 559.621C191.033 559.284 191.269 558.832 191.34 558.342C191.41 557.851 191.311 557.351 191.057 556.925C190.804 556.499 190.412 556.173 189.947 556.001Z" fill="#BEBEBE"/>
<path d="M192.221 339.278H137.208C132.783 339.278 129.195 342.866 129.195 347.292V363.644C129.195 368.07 132.783 371.658 137.208 371.658H192.221C196.646 371.658 200.234 368.07 200.234 363.644V347.292C200.234 342.866 196.646 339.278 192.221 339.278Z" fill="#407BFF"/>
<path d="M136.698 371.673V374.489C136.698 376.809 139.22 378.697 142.314 378.697H187.178C190.272 378.697 192.793 376.809 192.793 374.489V371.673H136.698Z" fill="#407BFF"/>
<path opacity="0.3" d="M136.698 371.673V374.489C136.698 376.809 139.22 378.697 142.314 378.697H187.178C190.272 378.697 192.793 376.809 192.793 374.489V371.673H136.698Z" fill="white"/>
</g>
<defs>
<clipPath id="clip0_72_27389">
<rect width="672" height="672" fill="white"/>
</clipPath>
</defs>
</svg>
